<svg width="22" height="22" viewBox="0 0 22 22" fill="none" xmlns="http://www.w3.org/2000/svg">
<g id="Frame">
<path id="Vector" d="M17.6639 4.88585C16.4448 4.31752 15.1248 3.90502 13.7498 3.66669C13.7256 3.66703 13.7025 3.67692 13.6856 3.69419C13.5206 3.99669 13.3281 4.39085 13.1998 4.69335C11.7414 4.47349 10.2582 4.47349 8.79978 4.69335C8.67145 4.38169 8.47895 3.99669 8.30478 3.69419C8.29562 3.67585 8.26812 3.66669 8.24061 3.66669C6.86561 3.90502 5.55478 4.31752 4.32645 4.88585C4.31728 4.88585 4.30812 4.89502 4.29895 4.90419C1.80562 8.63502 1.11812 12.265 1.45728 15.8584C1.45728 15.8767 1.46645 15.895 1.48478 15.9042C3.13478 17.1142 4.72062 17.8475 6.28812 18.3334C6.31562 18.3425 6.34311 18.3334 6.35228 18.315C6.71895 17.8109 7.04895 17.2792 7.33312 16.72C7.35145 16.6834 7.33312 16.6467 7.29645 16.6375C6.77395 16.4359 6.27895 16.1975 5.79312 15.9225C5.75645 15.9042 5.75645 15.8492 5.78395 15.8217C5.88478 15.7484 5.98562 15.6659 6.08645 15.5925C6.10478 15.5742 6.13228 15.5742 6.15062 15.5834C9.30395 17.0225 12.7048 17.0225 15.8214 15.5834C15.8398 15.5742 15.8673 15.5742 15.8856 15.5925C15.9864 15.675 16.0873 15.7484 16.1881 15.8309C16.2248 15.8584 16.2248 15.9134 16.1789 15.9317C15.7023 16.2159 15.1981 16.445 14.6756 16.6467C14.6389 16.6559 14.6298 16.7017 14.6389 16.7292C14.9323 17.2884 15.2623 17.82 15.6198 18.3242C15.6473 18.3334 15.6748 18.3425 15.7023 18.3334C17.2789 17.8475 18.8648 17.1142 20.5148 15.9042C20.5331 15.895 20.5423 15.8767 20.5423 15.8584C20.9456 11.7059 19.8731 8.10335 17.7006 4.90419C17.6914 4.89502 17.6823 4.88585 17.6639 4.88585ZM7.80978 13.6675C6.86562 13.6675 6.07728 12.7967 6.07728 11.7242C6.07728 10.6517 6.84728 9.78085 7.80978 9.78085C8.78145 9.78085 9.55145 10.6609 9.54228 11.7242C9.54228 12.7967 8.77228 13.6675 7.80978 13.6675ZM14.1989 13.6675C13.2548 13.6675 12.4664 12.7967 12.4664 11.7242C12.4664 10.6517 13.2364 9.78085 14.1989 9.78085C15.1706 9.78085 15.9406 10.6609 15.9314 11.7242C15.9314 12.7967 15.1706 13.6675 14.1989 13.6675Z" fill="#FFFBFA"/>
</g>
</svg>
