<svg width="19" height="18" viewBox="0 0 19 18" fill="none" xmlns="http://www.w3.org/2000/svg">
<g id="Frame">
<path id="Vector" d="M2 8.25H5.75V9.75H2V8.25ZM13.25 8.25H17V9.75H13.25V8.25ZM8.75 12.75H10.25V16.5H8.75V12.75ZM8.75 1.5H10.25V5.25H8.75V1.5ZM3.6665 4.227L4.727 3.1665L7.379 5.8185L6.3185 6.879L3.6665 4.227ZM15.3335 13.773L14.273 14.8335L11.621 12.1815L12.6815 11.121L15.3335 13.773ZM6.3185 11.121L7.379 12.1815L4.727 14.8335L3.6665 13.773L6.3185 11.121ZM11.621 5.81775L14.273 3.1665L15.3335 4.22775L12.6815 6.879L11.621 5.81775Z" fill="#2B2929"/>
</g>
</svg>
