<svg width="140" height="30" viewBox="0 0 140 30" fill="none" xmlns="http://www.w3.org/2000/svg">
<g id="Group 3">
<g id="Group">
<path id="Vector" d="M21.7128 5.90521L15.8015 0.0375952C15.7194 -0.0438994 15.5757 0.0172216 15.5962 0.139463L16.4172 10.3263C16.4172 10.4282 16.5404 10.4689 16.6225 10.4078L21.7128 6.08857C21.7538 6.02745 21.7743 5.94595 21.7128 5.90521Z" fill="#EEFF00"/>
<path id="Vector_2" d="M29.4304 13.5456L23.5191 7.67802C23.4781 7.63727 23.3754 7.63727 23.3344 7.67802L18.983 12.7511C18.9215 12.8326 18.9625 12.9344 19.0651 12.9548L29.3278 13.7697C29.4509 13.7697 29.5125 13.6271 29.4304 13.5456Z" fill="#EEFF00"/>
<path id="Vector_3" d="M7.73489 23.3453L13.6462 29.2129C13.7283 29.2944 13.872 29.2332 13.8514 29.111L13.0304 18.9242C13.0304 18.8223 12.9073 18.7816 12.8252 18.8427L7.73489 23.1619C7.69384 23.2026 7.69384 23.2841 7.73489 23.3453Z" fill="#EEFF00"/>
<path id="Vector_4" d="M15.8014 29.2129L21.7127 23.3453C21.7538 23.3045 21.7538 23.2026 21.7127 23.1619L16.6225 18.8427C16.5404 18.7816 16.4377 18.8223 16.4172 18.9242L15.5962 29.111C15.5962 29.2332 15.7193 29.2944 15.8014 29.2129Z" fill="#EEFF00"/>
<path id="Vector_5" d="M13.6462 0.0377642L7.73489 5.90538C7.69384 5.94612 7.69384 6.04799 7.73489 6.08874L12.8457 10.3876C12.9278 10.4487 13.0304 10.408 13.0509 10.3061L13.872 0.119259C13.872 0.0173906 13.7283 -0.0437304 13.6462 0.0377642Z" fill="#EEFF00"/>
<path id="Vector_6" d="M18.9828 16.4997L23.3341 21.5523C23.3752 21.6134 23.4573 21.6134 23.5189 21.5523L29.4302 15.6847C29.5123 15.6032 29.4507 15.4606 29.3275 15.481L19.0649 16.2959C18.9828 16.2959 18.9212 16.4182 18.9828 16.4997Z" fill="#EEFF00"/>
<path id="Vector_7" d="M0.0380453 15.6847L5.94933 21.5523C5.99038 21.5931 6.09301 21.5931 6.13406 21.5523L10.4649 16.4996C10.5265 16.4181 10.4854 16.3163 10.3828 16.2959L0.120147 15.481C0.01752 15.481 -0.0440559 15.6032 0.0380453 15.6847Z" fill="#EEFF00"/>
<path id="Vector_8" d="M5.9494 7.6783L0.0381156 13.5459C-0.0439856 13.6274 0.0175903 13.77 0.140742 13.7496L10.4034 12.9347C10.506 12.9347 10.5471 12.8125 10.4855 12.731L6.13413 7.69867C6.07255 7.63755 5.99045 7.63755 5.9494 7.6783Z" fill="#EEFF00"/>
</g>
<g id="Group 1">
<path id="Vector_9" d="M53.055 5.98639L50.7767 7.20881C50.7356 7.22918 50.7151 7.26993 50.7151 7.33105V21.0221C50.7151 21.1036 50.7767 21.1444 50.8382 21.1444H53.055C53.1371 21.1444 53.1781 21.0833 53.1781 21.0221V6.10863C53.1986 6.00676 53.1371 5.92526 53.055 5.98639Z" fill="#FFFBFA"/>
<path id="Vector_10" d="M60.5876 9.59256C56.9546 9.30733 53.9374 12.3023 54.2248 15.9084C54.4506 18.7403 56.7699 21.0426 59.6229 21.2667C63.2559 21.5519 66.2731 18.557 65.9858 14.9508C65.76 12.1189 63.4406 9.81667 60.5876 9.59256ZM60.5671 18.8218C58.3093 19.1071 56.4005 17.2123 56.6878 14.9712C56.8931 13.4432 58.1246 12.2208 59.664 12.017C61.9218 11.7318 63.8306 13.6265 63.5433 15.8676C63.338 17.3957 62.1065 18.6385 60.5671 18.8218Z" fill="#FFFBFA"/>
<path id="Vector_11" d="M75.7353 10.4279C75.1196 10.0408 74.5449 9.75552 73.7649 9.63328C70.3782 9.10356 67.0942 11.5484 66.8274 14.9508C66.5605 18.3939 69.3725 21.287 72.7797 21.287C74.1138 21.287 75.0375 20.8388 75.7353 20.4313C75.7764 20.4109 75.7969 20.3702 75.7969 20.3091V17.8235C75.7969 17.7012 75.6738 17.6401 75.5711 17.7216C74.9964 18.1902 74.1549 18.781 72.985 18.8422C71.1787 18.944 69.5778 17.6198 69.352 15.8472C69.0851 13.7691 70.7272 11.9762 72.7797 11.9762C74.1754 11.9762 74.9759 12.5875 75.5711 13.0968C75.6532 13.1783 75.7969 13.1172 75.7969 12.9949V10.5297C75.7969 10.489 75.7764 10.4482 75.7353 10.4279Z" fill="#FFFBFA"/>
<path id="Vector_12" d="M82.3445 14.625L82.4061 14.5639L86.9422 9.89836C87.0038 9.83724 86.9627 9.73537 86.8601 9.73537H83.6992C83.6581 9.73537 83.6171 9.75574 83.5966 9.77612L79.9636 13.5249V6.06811C79.9636 5.96624 79.8404 5.90512 79.7583 5.94587L77.48 7.20904C77.439 7.22941 77.4185 7.27016 77.4185 7.33128V21.0224C77.4185 21.1039 77.48 21.165 77.5621 21.165H79.8404C79.9225 21.165 79.9841 21.1039 79.9841 21.0224V17.1921C79.9841 17.1514 80.0046 17.131 80.0252 17.0903L80.5383 16.5605C80.5999 16.4994 80.7025 16.4994 80.7436 16.5605L84.2944 21.0835C84.315 21.1242 84.356 21.1446 84.3971 21.1446H87.2706C87.3938 21.1446 87.4553 21.0224 87.3732 20.9205L82.3445 14.625Z" fill="#FFFBFA"/>
<path id="Vector_13" d="M92.9766 14.3193C90.9036 13.4025 90.7599 13.2395 90.6162 13.0154C90.4725 12.7913 90.4725 12.5876 90.5341 12.3838C90.6573 12.0171 91.2115 11.63 91.8477 11.7115C92.7714 11.8337 93.4282 12.3431 93.654 12.5672C93.7155 12.6079 93.7976 12.6283 93.8592 12.5876L95.5012 11.467C95.5628 11.4263 95.5833 11.3448 95.5218 11.2837C94.9265 10.6113 93.654 9.57227 91.7041 9.57227C90.6367 9.57227 89.5284 9.95937 88.8305 10.6317C88.2148 11.2225 87.8658 11.9967 87.8658 12.7709C87.8658 14.2582 88.6868 15.1139 91.8888 16.4586C92.6277 16.7642 93.1203 17.1309 93.2435 17.5995C93.4692 18.4756 92.5046 19.0868 91.4783 18.9441C91.2115 18.9034 90.2673 18.9238 89.4463 17.6199C89.4052 17.5587 89.3231 17.518 89.241 17.5587L87.2501 18.5978C87.168 18.6385 87.1474 18.72 87.1885 18.7812C88.5021 20.9611 90.3494 21.2871 91.6014 21.2871C95.8091 21.2871 96.0965 18.0477 95.727 16.8864C95.3576 15.6232 94.4545 14.9713 92.9766 14.3193Z" fill="#FFFBFA"/>
<path id="Vector_14" d="M125.304 14.3193C123.231 13.4025 123.087 13.2395 122.944 13.0154C122.8 12.7913 122.8 12.5876 122.861 12.3838C122.985 12.0171 123.539 11.63 124.175 11.7115C125.099 11.8337 125.756 12.3431 125.981 12.5672C126.043 12.6079 126.125 12.6283 126.187 12.5876L127.829 11.467C127.89 11.4263 127.911 11.3448 127.849 11.2837C127.295 10.5909 126.022 9.57227 124.052 9.57227C122.985 9.57227 121.876 9.95937 121.178 10.6317C120.563 11.2225 120.214 11.9967 120.214 12.7709C120.214 14.2582 121.035 15.1139 124.237 16.4586C124.976 16.7642 125.468 17.1309 125.591 17.5995C125.817 18.4756 124.852 19.0868 123.826 18.9441C123.559 18.9034 122.615 18.9238 121.794 17.6199C121.753 17.5587 121.671 17.518 121.589 17.5587L119.598 18.5978C119.516 18.6385 119.495 18.72 119.536 18.7812C120.85 20.9611 122.697 21.2871 123.949 21.2871C128.157 21.2871 128.444 18.0477 128.075 16.8864C127.685 15.6232 126.782 14.9713 125.304 14.3193Z" fill="#FFFBFA"/>
<path id="Vector_15" d="M102.336 9.57227C98.8673 9.57227 96.3222 12.4042 96.7327 16.1733C97.0406 19.0664 99.4831 21.3686 102.418 21.2667C104.204 21.2056 105.949 20.3499 107.036 18.9441C107.098 18.883 107.057 18.7812 106.975 18.7404L104.922 17.7828C104.861 17.7625 104.799 17.7625 104.758 17.8236C104.532 18.0681 103.752 18.8423 102.192 18.8423C100.694 18.8423 99.6267 17.8847 99.3804 16.4586H107.55C107.632 16.4586 107.693 16.3974 107.693 16.3159L107.714 15.3584C107.714 11.9967 105.271 9.57227 102.336 9.57227ZM99.3394 14.2786C99.7499 12.9747 100.838 11.956 102.275 11.956C103.711 11.956 104.758 12.832 105.086 14.2786H99.3394Z" fill="#FFFBFA"/>
<path id="Vector_16" d="M134.622 9.57227C131.154 9.57227 128.609 12.4042 129.019 16.1733C129.327 19.0664 131.769 21.3686 134.705 21.2667C136.49 21.2056 138.235 20.3499 139.323 18.9441C139.384 18.883 139.343 18.7812 139.261 18.7404L137.209 17.7828C137.147 17.7625 137.086 17.7625 137.044 17.8236C136.819 18.0681 136.039 18.8423 134.479 18.8423C132.98 18.8423 131.913 17.8847 131.667 16.4586H139.836C139.918 16.4586 139.98 16.3974 139.98 16.3159L140 15.3584C140 11.9967 137.537 9.57227 134.622 9.57227ZM131.626 14.2786C132.036 12.9747 133.124 11.956 134.561 11.956C135.998 11.956 137.044 12.832 137.373 14.2786H131.626Z" fill="#FFFBFA"/>
<path id="Vector_17" d="M44.188 9.57265C43.0386 9.57265 42.0124 9.919 40.8835 10.7951V6.10913C40.8835 6.00726 40.7603 5.94614 40.6782 5.98688L38.4615 7.2093C38.4204 7.22968 38.3999 7.27042 38.3999 7.33155V21.0226C38.3999 21.1041 38.4615 21.1653 38.5436 21.1653H40.7603C40.8424 21.1653 40.904 21.1041 40.904 21.0226V20.0855C41.7661 20.7782 42.9976 21.3079 44.2086 21.3079C47.3695 21.3079 49.7914 18.8223 49.7914 15.4606C49.7709 12.0582 47.3489 9.57265 44.188 9.57265ZM44.188 18.8834C43.7365 18.8834 43.2849 18.8019 42.8744 18.6185C41.6429 18.0685 40.945 16.7034 40.945 15.4199C40.945 13.3214 42.3202 12.2416 43.6133 12.0175C43.6544 12.0175 43.6954 11.9971 43.7365 11.9971C43.757 11.9971 43.757 11.9971 43.7775 11.9971C43.8186 11.9971 43.8802 11.9971 43.9212 11.9767C43.9417 11.9767 43.9623 11.9767 43.9828 11.9767H44.0033C44.0444 11.9767 44.0854 11.9767 44.1265 11.9767C44.147 11.9767 44.1675 11.9767 44.1675 11.9767C46.2816 11.9767 47.2053 13.7696 47.2053 15.4403C47.2258 17.8036 45.6659 18.8834 44.188 18.8834Z" fill="#FFFBFA"/>
<g id="Group_2">
<path id="Vector_18" d="M117.34 10.5297C118.059 11.1816 118.408 12.1392 118.408 13.4228V21.0221C118.408 21.0832 118.346 21.1444 118.284 21.1444H115.945C115.883 21.1444 115.821 21.0832 115.821 21.0221V14.2173C115.821 13.056 115.657 12.6078 115.329 12.2615C115 11.9151 114.528 11.7521 113.933 11.7521C113.256 11.7521 112.578 11.9558 112.188 12.3429C111.778 12.73 111.408 13.3413 111.408 14.5026V21.0221C111.408 21.0832 111.347 21.1444 111.285 21.1444H108.986C108.925 21.1444 108.863 21.0832 108.863 21.0221V9.83699C108.863 9.77587 108.925 9.71475 108.986 9.71475H111.326C111.388 9.71475 111.449 9.77587 111.449 9.83699V10.7131C111.798 10.3463 112.25 10.0611 112.784 9.85736C113.317 9.65363 113.892 9.55176 114.528 9.55176C115.698 9.55176 116.622 9.87774 117.34 10.5297Z" fill="#FFFBFA"/>
</g>
</g>
</g>
</svg>
